# xmcd CD database file
#
# Track frame offsets:
#	150
#	20902
#	44797
#
# Disc length: 872 seconds
#
# Revision: 0
# Processed by: cddbd v1.5.1PL0 Copyright (c) Steve Scherf et al.
# Submitted via: CDex 1.51
#
DISCID=28036603
DTITLE=安倍　麻美 - Everyday (EP)
DYEAR=2004
DGENRE=Pop
TTITLE0=Everyday
TTITLE1=Ring
TTITLE2=Everyday (Instrumental)
EXTD=YEAR: 2004
EXTT0=
EXTT1=
EXTT2=
PLAYORDER=
